 http://img200.imageshack.us/img200/6967/1308702823521.jpg

Country.......: Switzerland
Genre.........: Thriller
Date release..: 2010 [World]
Director......: Michael Steiner
Writers.......: Michael Steiner, Stefanie Japp
Duration......: 111 min.
More..........: http://www.imdb.com/title/tt1296077
Trailer.......: http://www.imdb.com/video/imdblink/vi3769539865
Trailer.......:

Pilot :
The film centers around the legend of Swiss straw doll, which kept company with a lonely shepherds. They enlivened by the demonic puppet magic ...

Cats :
Roxane Mesquida   	 ...  	Sennentuntschi
Joel Basman 	... 	Albert
Rebecca Indermaur 	... 	Theres
Peter Jecklin 	... 	Dr. Zingg
Ueli Jaggi 	... 	Pfarrer Salis
Thomas Landl 	... 	Pfleger Huwiler
Carlos Leal 	... 	Martin
Hanspeter Muller 	... 	Notter (as Hanspeter Muller-Drossart)
Florian Nussbaumer 	... 	Polizist
Nicholas Ofczarek 	... 	Sebastian Reusch
Daniel Rohr 	... 	Bauer Stahli
Anne Marie Sievi 	... 	Grossmutter Lisbeth
Andrea Zogg 	... 	Erwin 

Data Technical :
!!! SAMPLE !!!
Audio.....: German
Subtitles.: English .srt, Spanish .srt
[ CD1 ]
Format                           : AVI
Format/Info                      : Audio Video Interleave
File size                        : 701 MiB
Duration                         : 54mn 35s
Overall bit rate                 : 1 796 Kbps
Video
ID                               : 0
Format                           : MPEG-4 Visual
Format profile                   : Advanced Simple@L5
Format settings, BVOP            : Yes
Format settings, QPel            : No
Format settings, GMC             : No warppoints
Format settings, Matrix          : Default (H.263)
Codec ID                         : XVID
Codec ID/Hint                    : XviD
Duration                         : 54mn 35s
Bit rate                         : 1 338 Kbps
Width                            : 640 pixels
Height                           : 272 pixels
Display aspect ratio             : 2.35:1
Frame rate                       : 25.000 fps
Color space                      : YUV
Chroma subsampling               : 4:2:0
Bit depth                        : 8 bits
Scan type                        : Progressive
Bits/(Pixel*Frame)               : 0.307
Stream size                      : 523 MiB (75%)
Writing library                  : XviD 1.2.1 (UTC 2008-12-04)
Audio
ID                               : 1
Format                           : AC-3
Format/Info                      : Audio Coding 3
Mode extension                   : CM (complete main)
Codec ID                         : 2000
Duration                         : 54mn 35s
Bit rate mode                    : Constant
Bit rate                         : 448 Kbps
Channel(s)                       : 6 channels
Channel positions                : Front: L C R, Side: L R, LFE
Sampling rate                    : 48.0 KHz
Bit depth                        : 16 bits
Stream size                      : 175 MiB (25%)
Alignment                        : Split accross interleaves
Interleave, duration             : 40 ms (1.00 video frame)
Interleave, preload duration     : 500 ms
[ CD2 ]
Format                           : AVI
Format/Info                      : Audio Video Interleave
File size                        : 700 MiB
Duration                         : 55mn 50s
Overall bit rate                 : 1 752 Kbps
Video
ID                               : 0
Format                           : MPEG-4 Visual
Format profile                   : Advanced Simple@L5
Format settings, BVOP            : Yes
Format settings, QPel            : No
Format settings, GMC             : No warppoints
Format settings, Matrix          : Default (H.263)
Codec ID                         : XVID
Codec ID/Hint                    : XviD
Duration                         : 55mn 50s
Bit rate                         : 1 294 Kbps
Width                            : 640 pixels
Height                           : 272 pixels
Display aspect ratio             : 2.35:1
Frame rate                       : 25.000 fps
Color space                      : YUV
Chroma subsampling               : 4:2:0
Bit depth                        : 8 bits
Scan type                        : Progressive
Bits/(Pixel*Frame)               : 0.297
Stream size                      : 517 MiB (74%)
Writing library                  : XviD 1.2.1 (UTC 2008-12-04)
Audio
ID                               : 1
Format                           : AC-3
Format/Info                      : Audio Coding 3
Mode extension                   : CM (complete main)
Codec ID                         : 2000
Duration                         : 55mn 49s
Bit rate mode                    : Constant
Bit rate                         : 448 Kbps
Channel(s)                       : 6 channels
Channel positions                : Front: L C R, Side: L R, LFE
Sampling rate                    : 48.0 KHz
Bit depth                        : 16 bits
Video delay                      : 8ms
Stream size                      : 179 MiB (26%)
Alignment                        : Split accross interleaves
Interleave, duration             : 40 ms (1.00 video frame)
Interleave, preload duration     : 500 ms

Screen : 
http://img707.imageshack.us/img707/3006/sennentuntschi2010s1.jpg 
http://img14.imageshack.us/img14/2118/sennentuntschi2010s2.jpg 
http://img688.imageshack.us/img688/6705/sennentuntschi2010s3.jpg 
http://img854.imageshack.us/img854/4859/sennentuntschi2010s4.jpg 
http://img84.imageshack.us/img84/4017/sennentuntschi2010s5.jpg